<?xml version="1.0" encoding="UTF-8" standalone="no"?>
<!-- Created with Inkscape (http://www.inkscape.org/) -->

<svg
   width="160mm"
   height="160mm"
   viewBox="0 0 160 160"
   version="1.1"
   id="svg5"
   xml:space="preserve"
   inkscape:version="1.2 (dc2aedaf03, 2022-05-15)"
   sodipodi:docname="hand-stopwatch.svg"
   xmlns:inkscape="http://www.inkscape.org/namespaces/inkscape"
   xmlns:sodipodi="http://sodipodi.sourceforge.net/DTD/sodipodi-0.dtd"
   xmlns:xlink="http://www.w3.org/1999/xlink"
   xmlns="http://www.w3.org/2000/svg"
   xmlns:svg="http://www.w3.org/2000/svg"><sodipodi:namedview
     id="namedview7"
     pagecolor="#ffffff"
     bordercolor="#eeeeee"
     borderopacity="1"
     inkscape:showpageshadow="0"
     inkscape:pageopacity="0"
     inkscape:pagecheckerboard="0"
     inkscape:deskcolor="#505050"
     inkscape:document-units="mm"
     showgrid="false"
     inkscape:zoom="1"
     inkscape:cx="217"
     inkscape:cy="242"
     inkscape:window-width="1920"
     inkscape:window-height="1017"
     inkscape:window-x="-8"
     inkscape:window-y="-8"
     inkscape:window-maximized="1"
     inkscape:current-layer="layer1" /><defs
     id="defs2"><linearGradient
       inkscape:collect="always"
       id="linearGradient900"><stop
         style="stop-color:#64b3f4;stop-opacity:1;"
         offset="0"
         id="stop2360" /><stop
         style="stop-color:#c2e59c;stop-opacity:1;"
         offset="1"
         id="stop898" /></linearGradient><rect
       x="93.338097"
       y="840.04285"
       width="803.27332"
       height="309.71277"
       id="rect2081" /><rect
       x="65.433868"
       y="806.0694"
       width="480.79669"
       height="209.57803"
       id="rect323" /><rect
       x="93.338097"
       y="840.04285"
       width="803.27332"
       height="309.71277"
       id="rect2081-4" /><rect
       x="93.338097"
       y="840.04285"
       width="803.27332"
       height="309.71277"
       id="rect2081-9" /><rect
       x="93.338097"
       y="840.04285"
       width="803.27332"
       height="309.71277"
       id="rect2081-7" /><linearGradient
       inkscape:collect="always"
       xlink:href="#linearGradient900"
       id="linearGradient902"
       x1="59.390095"
       y1="143.54022"
       x2="159.39009"
       y2="143.54022"
       gradientUnits="userSpaceOnUse"
       gradientTransform="matrix(1.1162767,0,0,1.1124534,69.048849,-142.89943)" /></defs><g
     inkscape:label="Laag 1"
     inkscape:groupmode="layer"
     id="layer1"
     transform="translate(-31.999559,-61.466848)"><rect
       style="fill:#fffffb;fill-opacity:1;stroke:#81b9bf;stroke-width:2.21102;stroke-linejoin:round;stroke-dasharray:none;stroke-opacity:1"
       id="rect1882"
       width="65.635887"
       height="25.292669"
       x="125.01321"
       y="109.74216"
       ry="12.646335" /><path
       style="fill:#fffffb;fill-opacity:1;stroke:#81b9bf;stroke-width:2.21102;stroke-linejoin:round;stroke-dasharray:none;stroke-opacity:1"
       d="m 83.645199,110.23654 c -9.11584,-3.42226 -9.768329,-7.80869 -3.913565,-12.936466 L 101.07226,82.927313 C 111.64063,75.400214 102.74027,56.201718 88.877618,64.693215 L 49.065685,94.296811 C 41.435591,103.42092 34.167078,113.00844 33.105046,130.5505 l 0.179332,36.03916 c 5.400176,38.0552 28.039532,46.30827 51.06682,43.85921 z"
       id="path6962"
       sodipodi:nodetypes="ccccccccc" /><ellipse
       style="fill:url(#linearGradient902);fill-opacity:1;stroke:#81b9bf;stroke-width:2.26088;stroke-linejoin:round;stroke-dasharray:none;stroke-opacity:1"
       id="path1936"
       cx="191.15846"
       cy="16.782375"
       transform="matrix(0.63405696,0.77328634,-0.64867217,0.76106794,0,0)"
       rx="54.681454"
       ry="54.494167" /><rect
       style="fill:#b2ebf2;fill-opacity:1;stroke:#a69b97;stroke-width:1.1055;stroke-linecap:round;stroke-linejoin:round;stroke-dasharray:none;stroke-opacity:1"
       id="rect2191"
       width="67.70018"
       height="66.053329"
       x="76.526405"
       y="127.28765"
       ry="4.5027738" /><path
       style="fill:none;fill-opacity:1;stroke:#81b9bf;stroke-width:2.21102;stroke-linejoin:round;stroke-dasharray:none;stroke-opacity:1"
       d="m 90.841849,105.15357 -2.80891,-8.832596 -3.149019,0.673883 c 7.107467,-1.444299 9.107714,-2.433032 15.009293,-6.576661 l -2.622694,1.853436 2.807371,8.956038 z"
       id="path7013"
       sodipodi:nodetypes="ccccccc"
       inkscape:transform-center-x="0.80743851"
       inkscape:transform-center-y="-1.1235324" /><g
       aria-label="0:00.00"
       transform="matrix(0.26743717,0,0,0.31990931,82.141958,-138.28296)"
       id="text2079"
       style="font-size:48px;font-family:'Seven Segment';-inkscape-font-specification:'Seven Segment, Normal';white-space:pre;shape-inside:url(#rect2081);display:inline;stroke:#a69b97;stroke-width:2.26772;stroke-linecap:round;stroke-linejoin:round"><path
         d="m 96.220703,880.61328 v -10.6875 l 1.523438,-1.52344 1.523437,1.52344 v 10.6875 l -1.523437,1.52344 z m 0,-15.28125 v -10.6875 l 1.523438,-1.52344 1.523437,1.52344 v 10.6875 l -1.523437,1.52344 z m 2.296875,17.57813 1.523442,-1.54688 h 10.6875 l 1.52343,1.54688 -1.52343,1.52343 h -10.6875 z m 0,-30.5625 1.523442,-1.52344 h 10.6875 l 1.52343,1.52344 -1.52343,1.52343 h -10.6875 z m 12.984372,28.26562 v -10.6875 l 1.52344,-1.52344 1.52344,1.52344 v 10.6875 l -1.52344,1.52344 z m 0,-15.28125 v -10.6875 l 1.52344,-1.52344 1.52344,1.52344 v 10.6875 l -1.52344,1.52344 z"
         id="path433" /><path
         d="m 120.31445,882.91016 v -1.57032 l 1.52344,-1.54687 1.52344,1.54687 v 1.57032 l -1.52344,1.52343 z m 0,-9.25782 v -1.59375 l 1.52344,-1.52343 1.52344,1.52343 v 1.59375 l -1.52344,1.52344 z"
         id="path435" /><path
         d="m 129.12695,880.61328 v -10.6875 l 1.52344,-1.52344 1.52344,1.52344 v 10.6875 l -1.52344,1.52344 z m 0,-15.28125 v -10.6875 l 1.52344,-1.52344 1.52344,1.52344 v 10.6875 l -1.52344,1.52344 z m 2.29688,17.57813 1.52344,-1.54688 h 10.6875 l 1.52343,1.54688 -1.52343,1.52343 h -10.6875 z m 0,-30.5625 1.52344,-1.52344 h 10.6875 l 1.52343,1.52344 -1.52343,1.52343 h -10.6875 z m 12.98437,28.26562 v -10.6875 l 1.52344,-1.52344 1.52344,1.52344 v 10.6875 l -1.52344,1.52344 z m 0,-15.28125 v -10.6875 l 1.52344,-1.52344 1.52344,1.52344 v 10.6875 l -1.52344,1.52344 z"
         id="path437" /><path
         d="m 153.2207,880.61328 v -10.6875 l 1.52344,-1.52344 1.52344,1.52344 v 10.6875 l -1.52344,1.52344 z m 0,-15.28125 v -10.6875 l 1.52344,-1.52344 1.52344,1.52344 v 10.6875 l -1.52344,1.52344 z m 2.29688,17.57813 1.52344,-1.54688 h 10.6875 l 1.52343,1.54688 -1.52343,1.52343 h -10.6875 z m 0,-30.5625 1.52344,-1.52344 h 10.6875 l 1.52343,1.52344 -1.52343,1.52343 h -10.6875 z m 12.98437,28.26562 v -10.6875 l 1.52344,-1.52344 1.52344,1.52344 v 10.6875 l -1.52344,1.52344 z m 0,-15.28125 v -10.6875 l 1.52344,-1.52344 1.52344,1.52344 v 10.6875 l -1.52344,1.52344 z"
         id="path439" /><path
         d="m 177.31445,882.91016 v -1.57032 l 1.52344,-1.54687 1.52344,1.54687 v 1.57032 l -1.52344,1.52343 z"
         id="path441" /><path
         d="m 186.12695,880.61328 v -10.6875 l 1.52344,-1.52344 1.52344,1.52344 v 10.6875 l -1.52344,1.52344 z m 0,-15.28125 v -10.6875 l 1.52344,-1.52344 1.52344,1.52344 v 10.6875 l -1.52344,1.52344 z m 2.29688,17.57813 1.52344,-1.54688 h 10.6875 l 1.52343,1.54688 -1.52343,1.52343 h -10.6875 z m 0,-30.5625 1.52344,-1.52344 h 10.6875 l 1.52343,1.52344 -1.52343,1.52343 h -10.6875 z m 12.98437,28.26562 v -10.6875 l 1.52344,-1.52344 1.52344,1.52344 v 10.6875 l -1.52344,1.52344 z m 0,-15.28125 v -10.6875 l 1.52344,-1.52344 1.52344,1.52344 v 10.6875 l -1.52344,1.52344 z"
         id="path443" /><path
         d="m 210.2207,880.61328 v -10.6875 l 1.52344,-1.52344 1.52344,1.52344 v 10.6875 l -1.52344,1.52344 z m 0,-15.28125 v -10.6875 l 1.52344,-1.52344 1.52344,1.52344 v 10.6875 l -1.52344,1.52344 z m 2.29688,17.57813 1.52344,-1.54688 h 10.6875 l 1.52343,1.54688 -1.52343,1.52343 h -10.6875 z m 0,-30.5625 1.52344,-1.52344 h 10.6875 l 1.52343,1.52344 -1.52343,1.52343 h -10.6875 z m 12.98437,28.26562 v -10.6875 l 1.52344,-1.52344 1.52344,1.52344 v 10.6875 l -1.52344,1.52344 z m 0,-15.28125 v -10.6875 l 1.52344,-1.52344 1.52344,1.52344 v 10.6875 l -1.52344,1.52344 z"
         id="path445" /></g><g
       aria-label="00"
       transform="matrix(0.26743717,0,0,0.31990931,56.169684,-138.28296)"
       id="text2079-6"
       style="font-size:48px;font-family:'Seven Segment';-inkscape-font-specification:'Seven Segment, Normal';white-space:pre;shape-inside:url(#rect2081-7);display:inline;stroke:#a69b97;stroke-width:2.26772;stroke-linecap:round;stroke-linejoin:round"><path
         d="m 96.220703,880.61328 v -10.6875 l 1.523438,-1.52344 1.523437,1.52344 v 10.6875 l -1.523437,1.52344 z m 0,-15.28125 v -10.6875 l 1.523438,-1.52344 1.523437,1.52344 v 10.6875 l -1.523437,1.52344 z m 2.296875,17.57813 1.523442,-1.54688 h 10.6875 l 1.52343,1.54688 -1.52343,1.52343 h -10.6875 z m 0,-30.5625 1.523442,-1.52344 h 10.6875 l 1.52343,1.52344 -1.52343,1.52343 h -10.6875 z m 12.984372,28.26562 v -10.6875 l 1.52344,-1.52344 1.52344,1.52344 v 10.6875 l -1.52344,1.52344 z m 0,-15.28125 v -10.6875 l 1.52344,-1.52344 1.52344,1.52344 v 10.6875 l -1.52344,1.52344 z"
         id="path428" /><path
         d="m 120.31445,880.61328 v -10.6875 l 1.52344,-1.52344 1.52344,1.52344 v 10.6875 l -1.52344,1.52344 z m 0,-15.28125 v -10.6875 l 1.52344,-1.52344 1.52344,1.52344 v 10.6875 l -1.52344,1.52344 z m 2.29688,17.57813 1.52344,-1.54688 h 10.6875 l 1.52343,1.54688 -1.52343,1.52343 h -10.6875 z m 0,-30.5625 1.52344,-1.52344 h 10.6875 l 1.52343,1.52344 -1.52343,1.52343 h -10.6875 z m 12.98437,28.26562 v -10.6875 l 1.52344,-1.52344 1.52344,1.52344 v 10.6875 l -1.52344,1.52344 z m 0,-15.28125 v -10.6875 l 1.52344,-1.52344 1.52344,1.52344 v 10.6875 l -1.52344,1.52344 z"
         id="path430" /></g><g
       aria-label="0:00:00.00"
       transform="matrix(0.26743717,0,0,0.31990931,66.89804,-121.32006)"
       id="text2079-4"
       style="font-size:48px;font-family:'Seven Segment';-inkscape-font-specification:'Seven Segment, Normal';white-space:pre;shape-inside:url(#rect2081-4);display:inline;stroke:#a69b97;stroke-width:2.26772;stroke-linecap:round;stroke-linejoin:round"><path
         d="m 96.220703,880.61328 v -10.6875 l 1.523438,-1.52344 1.523437,1.52344 v 10.6875 l -1.523437,1.52344 z m 0,-15.28125 v -10.6875 l 1.523438,-1.52344 1.523437,1.52344 v 10.6875 l -1.523437,1.52344 z m 2.296875,17.57813 1.523442,-1.54688 h 10.6875 l 1.52343,1.54688 -1.52343,1.52343 h -10.6875 z m 0,-30.5625 1.523442,-1.52344 h 10.6875 l 1.52343,1.52344 -1.52343,1.52343 h -10.6875 z m 12.984372,28.26562 v -10.6875 l 1.52344,-1.52344 1.52344,1.52344 v 10.6875 l -1.52344,1.52344 z m 0,-15.28125 v -10.6875 l 1.52344,-1.52344 1.52344,1.52344 v 10.6875 l -1.52344,1.52344 z"
         id="path448" /><path
         d="m 120.31445,882.91016 v -1.57032 l 1.52344,-1.54687 1.52344,1.54687 v 1.57032 l -1.52344,1.52343 z m 0,-9.25782 v -1.59375 l 1.52344,-1.52343 1.52344,1.52343 v 1.59375 l -1.52344,1.52344 z"
         id="path450" /><path
         d="m 129.12695,880.61328 v -10.6875 l 1.52344,-1.52344 1.52344,1.52344 v 10.6875 l -1.52344,1.52344 z m 0,-15.28125 v -10.6875 l 1.52344,-1.52344 1.52344,1.52344 v 10.6875 l -1.52344,1.52344 z m 2.29688,17.57813 1.52344,-1.54688 h 10.6875 l 1.52343,1.54688 -1.52343,1.52343 h -10.6875 z m 0,-30.5625 1.52344,-1.52344 h 10.6875 l 1.52343,1.52344 -1.52343,1.52343 h -10.6875 z m 12.98437,28.26562 v -10.6875 l 1.52344,-1.52344 1.52344,1.52344 v 10.6875 l -1.52344,1.52344 z m 0,-15.28125 v -10.6875 l 1.52344,-1.52344 1.52344,1.52344 v 10.6875 l -1.52344,1.52344 z"
         id="path452" /><path
         d="m 153.2207,880.61328 v -10.6875 l 1.52344,-1.52344 1.52344,1.52344 v 10.6875 l -1.52344,1.52344 z m 0,-15.28125 v -10.6875 l 1.52344,-1.52344 1.52344,1.52344 v 10.6875 l -1.52344,1.52344 z m 2.29688,17.57813 1.52344,-1.54688 h 10.6875 l 1.52343,1.54688 -1.52343,1.52343 h -10.6875 z m 0,-30.5625 1.52344,-1.52344 h 10.6875 l 1.52343,1.52344 -1.52343,1.52343 h -10.6875 z m 12.98437,28.26562 v -10.6875 l 1.52344,-1.52344 1.52344,1.52344 v 10.6875 l -1.52344,1.52344 z m 0,-15.28125 v -10.6875 l 1.52344,-1.52344 1.52344,1.52344 v 10.6875 l -1.52344,1.52344 z"
         id="path454" /><path
         d="m 177.31445,882.91016 v -1.57032 l 1.52344,-1.54687 1.52344,1.54687 v 1.57032 l -1.52344,1.52343 z m 0,-9.25782 v -1.59375 l 1.52344,-1.52343 1.52344,1.52343 v 1.59375 l -1.52344,1.52344 z"
         id="path456" /><path
         d="m 186.12695,880.61328 v -10.6875 l 1.52344,-1.52344 1.52344,1.52344 v 10.6875 l -1.52344,1.52344 z m 0,-15.28125 v -10.6875 l 1.52344,-1.52344 1.52344,1.52344 v 10.6875 l -1.52344,1.52344 z m 2.29688,17.57813 1.52344,-1.54688 h 10.6875 l 1.52343,1.54688 -1.52343,1.52343 h -10.6875 z m 0,-30.5625 1.52344,-1.52344 h 10.6875 l 1.52343,1.52344 -1.52343,1.52343 h -10.6875 z m 12.98437,28.26562 v -10.6875 l 1.52344,-1.52344 1.52344,1.52344 v 10.6875 l -1.52344,1.52344 z m 0,-15.28125 v -10.6875 l 1.52344,-1.52344 1.52344,1.52344 v 10.6875 l -1.52344,1.52344 z"
         id="path458" /><path
         d="m 210.2207,880.61328 v -10.6875 l 1.52344,-1.52344 1.52344,1.52344 v 10.6875 l -1.52344,1.52344 z m 0,-15.28125 v -10.6875 l 1.52344,-1.52344 1.52344,1.52344 v 10.6875 l -1.52344,1.52344 z m 2.29688,17.57813 1.52344,-1.54688 h 10.6875 l 1.52343,1.54688 -1.52343,1.52343 h -10.6875 z m 0,-30.5625 1.52344,-1.52344 h 10.6875 l 1.52343,1.52344 -1.52343,1.52343 h -10.6875 z m 12.98437,28.26562 v -10.6875 l 1.52344,-1.52344 1.52344,1.52344 v 10.6875 l -1.52344,1.52344 z m 0,-15.28125 v -10.6875 l 1.52344,-1.52344 1.52344,1.52344 v 10.6875 l -1.52344,1.52344 z"
         id="path460" /><path
         d="m 234.31445,882.91016 v -1.57032 l 1.52344,-1.54687 1.52344,1.54687 v 1.57032 l -1.52344,1.52343 z"
         id="path462" /><path
         d="m 243.12695,880.61328 v -10.6875 l 1.52344,-1.52344 1.52344,1.52344 v 10.6875 l -1.52344,1.52344 z m 0,-15.28125 v -10.6875 l 1.52344,-1.52344 1.52344,1.52344 v 10.6875 l -1.52344,1.52344 z m 2.29688,17.57813 1.52344,-1.54688 h 10.6875 l 1.52343,1.54688 -1.52343,1.52343 h -10.6875 z m 0,-30.5625 1.52344,-1.52344 h 10.6875 l 1.52343,1.52344 -1.52343,1.52343 h -10.6875 z m 12.98437,28.26562 v -10.6875 l 1.52344,-1.52344 1.52344,1.52344 v 10.6875 l -1.52344,1.52344 z m 0,-15.28125 v -10.6875 l 1.52344,-1.52344 1.52344,1.52344 v 10.6875 l -1.52344,1.52344 z"
         id="path464" /><path
         d="m 267.2207,880.61328 v -10.6875 l 1.52344,-1.52344 1.52344,1.52344 v 10.6875 l -1.52344,1.52344 z m 0,-15.28125 v -10.6875 l 1.52344,-1.52344 1.52344,1.52344 v 10.6875 l -1.52344,1.52344 z m 2.29688,17.57813 1.52344,-1.54688 h 10.6875 l 1.52343,1.54688 -1.52343,1.52343 h -10.6875 z m 0,-30.5625 1.52344,-1.52344 h 10.6875 l 1.52343,1.52344 -1.52343,1.52343 h -10.6875 z m 12.98437,28.26562 v -10.6875 l 1.52344,-1.52344 1.52344,1.52344 v 10.6875 l -1.52344,1.52344 z m 0,-15.28125 v -10.6875 l 1.52344,-1.52344 1.52344,1.52344 v 10.6875 l -1.52344,1.52344 z"
         id="path466" /></g><g
       aria-label="0:00:00.00"
       transform="matrix(0.26743717,0,0,0.31990931,66.89804,-104.12808)"
       id="text2079-5"
       style="font-size:48px;font-family:'Seven Segment';-inkscape-font-specification:'Seven Segment, Normal';white-space:pre;shape-inside:url(#rect2081-9);display:inline;stroke:#a69b97;stroke-width:2.26772;stroke-linecap:round;stroke-linejoin:round"><path
         d="m 96.220703,880.61328 v -10.6875 l 1.523438,-1.52344 1.523437,1.52344 v 10.6875 l -1.523437,1.52344 z m 0,-15.28125 v -10.6875 l 1.523438,-1.52344 1.523437,1.52344 v 10.6875 l -1.523437,1.52344 z m 2.296875,17.57813 1.523442,-1.54688 h 10.6875 l 1.52343,1.54688 -1.52343,1.52343 h -10.6875 z m 0,-30.5625 1.523442,-1.52344 h 10.6875 l 1.52343,1.52344 -1.52343,1.52343 h -10.6875 z m 12.984372,28.26562 v -10.6875 l 1.52344,-1.52344 1.52344,1.52344 v 10.6875 l -1.52344,1.52344 z m 0,-15.28125 v -10.6875 l 1.52344,-1.52344 1.52344,1.52344 v 10.6875 l -1.52344,1.52344 z"
         id="path469" /><path
         d="m 120.31445,882.91016 v -1.57032 l 1.52344,-1.54687 1.52344,1.54687 v 1.57032 l -1.52344,1.52343 z m 0,-9.25782 v -1.59375 l 1.52344,-1.52343 1.52344,1.52343 v 1.59375 l -1.52344,1.52344 z"
         id="path471" /><path
         d="m 129.12695,880.61328 v -10.6875 l 1.52344,-1.52344 1.52344,1.52344 v 10.6875 l -1.52344,1.52344 z m 0,-15.28125 v -10.6875 l 1.52344,-1.52344 1.52344,1.52344 v 10.6875 l -1.52344,1.52344 z m 2.29688,17.57813 1.52344,-1.54688 h 10.6875 l 1.52343,1.54688 -1.52343,1.52343 h -10.6875 z m 0,-30.5625 1.52344,-1.52344 h 10.6875 l 1.52343,1.52344 -1.52343,1.52343 h -10.6875 z m 12.98437,28.26562 v -10.6875 l 1.52344,-1.52344 1.52344,1.52344 v 10.6875 l -1.52344,1.52344 z m 0,-15.28125 v -10.6875 l 1.52344,-1.52344 1.52344,1.52344 v 10.6875 l -1.52344,1.52344 z"
         id="path473" /><path
         d="m 153.2207,880.61328 v -10.6875 l 1.52344,-1.52344 1.52344,1.52344 v 10.6875 l -1.52344,1.52344 z m 0,-15.28125 v -10.6875 l 1.52344,-1.52344 1.52344,1.52344 v 10.6875 l -1.52344,1.52344 z m 2.29688,17.57813 1.52344,-1.54688 h 10.6875 l 1.52343,1.54688 -1.52343,1.52343 h -10.6875 z m 0,-30.5625 1.52344,-1.52344 h 10.6875 l 1.52343,1.52344 -1.52343,1.52343 h -10.6875 z m 12.98437,28.26562 v -10.6875 l 1.52344,-1.52344 1.52344,1.52344 v 10.6875 l -1.52344,1.52344 z m 0,-15.28125 v -10.6875 l 1.52344,-1.52344 1.52344,1.52344 v 10.6875 l -1.52344,1.52344 z"
         id="path475" /><path
         d="m 177.31445,882.91016 v -1.57032 l 1.52344,-1.54687 1.52344,1.54687 v 1.57032 l -1.52344,1.52343 z m 0,-9.25782 v -1.59375 l 1.52344,-1.52343 1.52344,1.52343 v 1.59375 l -1.52344,1.52344 z"
         id="path477" /><path
         d="m 186.12695,880.61328 v -10.6875 l 1.52344,-1.52344 1.52344,1.52344 v 10.6875 l -1.52344,1.52344 z m 0,-15.28125 v -10.6875 l 1.52344,-1.52344 1.52344,1.52344 v 10.6875 l -1.52344,1.52344 z m 2.29688,17.57813 1.52344,-1.54688 h 10.6875 l 1.52343,1.54688 -1.52343,1.52343 h -10.6875 z m 0,-30.5625 1.52344,-1.52344 h 10.6875 l 1.52343,1.52344 -1.52343,1.52343 h -10.6875 z m 12.98437,28.26562 v -10.6875 l 1.52344,-1.52344 1.52344,1.52344 v 10.6875 l -1.52344,1.52344 z m 0,-15.28125 v -10.6875 l 1.52344,-1.52344 1.52344,1.52344 v 10.6875 l -1.52344,1.52344 z"
         id="path479" /><path
         d="m 210.2207,880.61328 v -10.6875 l 1.52344,-1.52344 1.52344,1.52344 v 10.6875 l -1.52344,1.52344 z m 0,-15.28125 v -10.6875 l 1.52344,-1.52344 1.52344,1.52344 v 10.6875 l -1.52344,1.52344 z m 2.29688,17.57813 1.52344,-1.54688 h 10.6875 l 1.52343,1.54688 -1.52343,1.52343 h -10.6875 z m 0,-30.5625 1.52344,-1.52344 h 10.6875 l 1.52343,1.52344 -1.52343,1.52343 h -10.6875 z m 12.98437,28.26562 v -10.6875 l 1.52344,-1.52344 1.52344,1.52344 v 10.6875 l -1.52344,1.52344 z m 0,-15.28125 v -10.6875 l 1.52344,-1.52344 1.52344,1.52344 v 10.6875 l -1.52344,1.52344 z"
         id="path481" /><path
         d="m 234.31445,882.91016 v -1.57032 l 1.52344,-1.54687 1.52344,1.54687 v 1.57032 l -1.52344,1.52343 z"
         id="path483" /><path
         d="m 243.12695,880.61328 v -10.6875 l 1.52344,-1.52344 1.52344,1.52344 v 10.6875 l -1.52344,1.52344 z m 0,-15.28125 v -10.6875 l 1.52344,-1.52344 1.52344,1.52344 v 10.6875 l -1.52344,1.52344 z m 2.29688,17.57813 1.52344,-1.54688 h 10.6875 l 1.52343,1.54688 -1.52343,1.52343 h -10.6875 z m 0,-30.5625 1.52344,-1.52344 h 10.6875 l 1.52343,1.52344 -1.52343,1.52343 h -10.6875 z m 12.98437,28.26562 v -10.6875 l 1.52344,-1.52344 1.52344,1.52344 v 10.6875 l -1.52344,1.52344 z m 0,-15.28125 v -10.6875 l 1.52344,-1.52344 1.52344,1.52344 v 10.6875 l -1.52344,1.52344 z"
         id="path485" /><path
         d="m 267.2207,880.61328 v -10.6875 l 1.52344,-1.52344 1.52344,1.52344 v 10.6875 l -1.52344,1.52344 z m 0,-15.28125 v -10.6875 l 1.52344,-1.52344 1.52344,1.52344 v 10.6875 l -1.52344,1.52344 z m 2.29688,17.57813 1.52344,-1.54688 h 10.6875 l 1.52343,1.54688 -1.52343,1.52343 h -10.6875 z m 0,-30.5625 1.52344,-1.52344 h 10.6875 l 1.52343,1.52344 -1.52343,1.52343 h -10.6875 z m 12.98437,28.26562 v -10.6875 l 1.52344,-1.52344 1.52344,1.52344 v 10.6875 l -1.52344,1.52344 z m 0,-15.28125 v -10.6875 l 1.52344,-1.52344 1.52344,1.52344 v 10.6875 l -1.52344,1.52344 z"
         id="path487" /></g><rect
       style="fill:#fffffb;fill-opacity:1;stroke:#81b9bf;stroke-width:2.21102;stroke-linejoin:round;stroke-dasharray:none;stroke-opacity:1"
       id="rect1742"
       width="34.515926"
       height="25.199165"
       x="124.81474"
       y="186.48967"
       ry="12.599583" /><rect
       style="fill:#fffffb;fill-opacity:1;stroke:#81b9bf;stroke-width:2.21102;stroke-linejoin:round;stroke-dasharray:none;stroke-opacity:1"
       id="rect1742-5"
       width="34.515926"
       height="25.199165"
       x="135.5519"
       y="161.2905"
       ry="12.599583" /><rect
       style="fill:#fffffb;fill-opacity:1;stroke:#81b9bf;stroke-width:2.21102;stroke-linejoin:round;stroke-dasharray:none;stroke-opacity:1"
       id="rect1742-7"
       width="34.515926"
       height="25.199165"
       x="135.5519"
       y="136.09132"
       ry="12.599583" /></g><script
     id="mesh_polyfill"
     type="text/javascript">
!function(){const t=&quot;http://www.w3.org/2000/svg&quot;,e=&quot;http://www.w3.org/1999/xlink&quot;,s=&quot;http://www.w3.org/1999/xhtml&quot;,r=2;if(document.createElementNS(t,&quot;meshgradient&quot;).x)return;const n=(t,e,s,r)=&gt;{let n=new x(.5*(e.x+s.x),.5*(e.y+s.y)),o=new x(.5*(t.x+e.x),.5*(t.y+e.y)),i=new x(.5*(s.x+r.x),.5*(s.y+r.y)),a=new x(.5*(n.x+o.x),.5*(n.y+o.y)),h=new x(.5*(n.x+i.x),.5*(n.y+i.y)),l=new x(.5*(a.x+h.x),.5*(a.y+h.y));return[[t,o,a,l],[l,h,i,r]]},o=t=&gt;{let e=t[0].distSquared(t[1]),s=t[2].distSquared(t[3]),r=.25*t[0].distSquared(t[2]),n=.25*t[1].distSquared(t[3]),o=e&gt;s?e:s,i=r&gt;n?r:n;return 18*(o&gt;i?o:i)},i=(t,e)=&gt;Math.sqrt(t.distSquared(e)),a=(t,e)=&gt;t.scale(2/3).add(e.scale(1/3)),h=t=&gt;{let e,s,r,n,o,i,a,h=new g;return t.match(/(\w+\(\s*[^)]+\))+/g).forEach(t=&gt;{let l=t.match(/[\w.-]+/g),d=l.shift();switch(d){case&quot;translate&quot;:2===l.length?e=new g(1,0,0,1,l[0],l[1]):(console.error(&quot;mesh.js: translate does not have 2 arguments!&quot;),e=new g(1,0,0,1,0,0)),h=h.append(e);break;case&quot;scale&quot;:1===l.length?s=new g(l[0],0,0,l[0],0,0):2===l.length?s=new g(l[0],0,0,l[1],0,0):(console.error(&quot;mesh.js: scale does not have 1 or 2 arguments!&quot;),s=new g(1,0,0,1,0,0)),h=h.append(s);break;case&quot;rotate&quot;:if(3===l.length&amp;&amp;(e=new g(1,0,0,1,l[1],l[2]),h=h.append(e)),l[0]){r=l[0]*Math.PI/180;let t=Math.cos(r),e=Math.sin(r);Math.abs(t)&lt;1e-16&amp;&amp;(t=0),Math.abs(e)&lt;1e-16&amp;&amp;(e=0),a=new g(t,e,-e,t,0,0),h=h.append(a)}else console.error(&quot;math.js: No argument to rotate transform!&quot;);3===l.length&amp;&amp;(e=new g(1,0,0,1,-l[1],-l[2]),h=h.append(e));break;case&quot;skewX&quot;:l[0]?(r=l[0]*Math.PI/180,n=Math.tan(r),o=new g(1,0,n,1,0,0),h=h.append(o)):console.error(&quot;math.js: No argument to skewX transform!&quot;);break;case&quot;skewY&quot;:l[0]?(r=l[0]*Math.PI/180,n=Math.tan(r),i=new g(1,n,0,1,0,0),h=h.append(i)):console.error(&quot;math.js: No argument to skewY transform!&quot;);break;case&quot;matrix&quot;:6===l.length?h=h.append(new g(...l)):console.error(&quot;math.js: Incorrect number of arguments for matrix!&quot;);break;default:console.error(&quot;mesh.js: Unhandled transform type: &quot;+d)}}),h},l=t=&gt;{let e=[],s=t.split(/[ ,]+/);for(let t=0,r=s.length-1;t&lt;r;t+=2)e.push(new x(parseFloat(s[t]),parseFloat(s[t+1])));return e},d=(t,e)=&gt;{for(let s in e)t.setAttribute(s,e[s])},c=(t,e,s,r,n)=&gt;{let o,i,a=[0,0,0,0];for(let h=0;h&lt;3;++h)e[h]&lt;t[h]&amp;&amp;e[h]&lt;s[h]||t[h]&lt;e[h]&amp;&amp;s[h]&lt;e[h]?a[h]=0:(a[h]=.5*((e[h]-t[h])/r+(s[h]-e[h])/n),o=Math.abs(3*(e[h]-t[h])/r),i=Math.abs(3*(s[h]-e[h])/n),a[h]&gt;o?a[h]=o:a[h]&gt;i&amp;&amp;(a[h]=i));return a},u=[[1,0,0,0,0,0,0,0,0,0,0,0,0,0,0,0],[0,0,0,0,1,0,0,0,0,0,0,0,0,0,0,0],[-3,3,0,0,-2,-1,0,0,0,0,0,0,0,0,0,0],[2,-2,0,0,1,1,0,0,0,0,0,0,0,0,0,0],[0,0,0,0,0,0,0,0,1,0,0,0,0,0,0,0],[0,0,0,0,0,0,0,0,0,0,0,0,1,0,0,0],[0,0,0,0,0,0,0,0,-3,3,0,0,-2,-1,0,0],[0,0,0,0,0,0,0,0,2,-2,0,0,1,1,0,0],[-3,0,3,0,0,0,0,0,-2,0,-1,0,0,0,0,0],[0,0,0,0,-3,0,3,0,0,0,0,0,-2,0,-1,0],[9,-9,-9,9,6,3,-6,-3,6,-6,3,-3,4,2,2,1],[-6,6,6,-6,-3,-3,3,3,-4,4,-2,2,-2,-2,-1,-1],[2,0,-2,0,0,0,0,0,1,0,1,0,0,0,0,0],[0,0,0,0,2,0,-2,0,0,0,0,0,1,0,1,0],[-6,6,6,-6,-4,-2,4,2,-3,3,-3,3,-2,-1,-2,-1],[4,-4,-4,4,2,2,-2,-2,2,-2,2,-2,1,1,1,1]],f=t=&gt;{let e=[];for(let s=0;s&lt;16;++s){e[s]=0;for(let r=0;r&lt;16;++r)e[s]+=u[s][r]*t[r]}return e},p=(t,e,s)=&gt;{const r=e*e,n=s*s,o=e*e*e,i=s*s*s;return t[0]+t[1]*e+t[2]*r+t[3]*o+t[4]*s+t[5]*s*e+t[6]*s*r+t[7]*s*o+t[8]*n+t[9]*n*e+t[10]*n*r+t[11]*n*o+t[12]*i+t[13]*i*e+t[14]*i*r+t[15]*i*o},y=t=&gt;{let e=[],s=[],r=[];for(let s=0;s&lt;4;++s)e[s]=[],e[s][0]=n(t[0][s],t[1][s],t[2][s],t[3][s]),e[s][1]=[],e[s][1].push(...n(...e[s][0][0])),e[s][1].push(...n(...e[s][0][1])),e[s][2]=[],e[s][2].push(...n(...e[s][1][0])),e[s][2].push(...n(...e[s][1][1])),e[s][2].push(...n(...e[s][1][2])),e[s][2].push(...n(...e[s][1][3]));for(let t=0;t&lt;8;++t){s[t]=[];for(let r=0;r&lt;4;++r)s[t][r]=[],s[t][r][0]=n(e[0][2][t][r],e[1][2][t][r],e[2][2][t][r],e[3][2][t][r]),s[t][r][1]=[],s[t][r][1].push(...n(...s[t][r][0][0])),s[t][r][1].push(...n(...s[t][r][0][1])),s[t][r][2]=[],s[t][r][2].push(...n(...s[t][r][1][0])),s[t][r][2].push(...n(...s[t][r][1][1])),s[t][r][2].push(...n(...s[t][r][1][2])),s[t][r][2].push(...n(...s[t][r][1][3]))}for(let t=0;t&lt;8;++t){r[t]=[];for(let e=0;e&lt;8;++e)r[t][e]=[],r[t][e][0]=s[t][0][2][e],r[t][e][1]=s[t][1][2][e],r[t][e][2]=s[t][2][2][e],r[t][e][3]=s[t][3][2][e]}return r};class x{constructor(t,e){this.x=t||0,this.y=e||0}toString(){return`(x=${this.x}, y=${this.y})`}clone(){return new x(this.x,this.y)}add(t){return new x(this.x+t.x,this.y+t.y)}scale(t){return void 0===t.x?new x(this.x*t,this.y*t):new x(this.x*t.x,this.y*t.y)}distSquared(t){let e=this.x-t.x,s=this.y-t.y;return e*e+s*s}transform(t){let e=this.x*t.a+this.y*t.c+t.e,s=this.x*t.b+this.y*t.d+t.f;return new x(e,s)}}class g{constructor(t,e,s,r,n,o){void 0===t?(this.a=1,this.b=0,this.c=0,this.d=1,this.e=0,this.f=0):(this.a=t,this.b=e,this.c=s,this.d=r,this.e=n,this.f=o)}toString(){return`affine: ${this.a} ${this.c} ${this.e} \n       ${this.b} ${this.d} ${this.f}`}append(t){t instanceof g||console.error(&quot;mesh.js: argument to Affine.append is not affine!&quot;);let e=this.a*t.a+this.c*t.b,s=this.b*t.a+this.d*t.b,r=this.a*t.c+this.c*t.d,n=this.b*t.c+this.d*t.d,o=this.a*t.e+this.c*t.f+this.e,i=this.b*t.e+this.d*t.f+this.f;return new g(e,s,r,n,o,i)}}class w{constructor(t,e){this.nodes=t,this.colors=e}paintCurve(t,e){if(o(this.nodes)&gt;r){const s=n(...this.nodes);let r=[[],[]],o=[[],[]];for(let t=0;t&lt;4;++t)r[0][t]=this.colors[0][t],r[1][t]=(this.colors[0][t]+this.colors[1][t])/2,o[0][t]=r[1][t],o[1][t]=this.colors[1][t];let i=new w(s[0],r),a=new w(s[1],o);i.paintCurve(t,e),a.paintCurve(t,e)}else{let s=Math.round(this.nodes[0].x);if(s&gt;=0&amp;&amp;s&lt;e){let r=4*(~~this.nodes[0].y*e+s);t[r]=Math.round(this.colors[0][0]),t[r+1]=Math.round(this.colors[0][1]),t[r+2]=Math.round(this.colors[0][2]),t[r+3]=Math.round(this.colors[0][3])}}}}class m{constructor(t,e){this.nodes=t,this.colors=e}split(){let t=[[],[],[],[]],e=[[],[],[],[]],s=[[[],[]],[[],[]]],r=[[[],[]],[[],[]]];for(let s=0;s&lt;4;++s){const r=n(this.nodes[0][s],this.nodes[1][s],this.nodes[2][s],this.nodes[3][s]);t[0][s]=r[0][0],t[1][s]=r[0][1],t[2][s]=r[0][2],t[3][s]=r[0][3],e[0][s]=r[1][0],e[1][s]=r[1][1],e[2][s]=r[1][2],e[3][s]=r[1][3]}for(let t=0;t&lt;4;++t)s[0][0][t]=this.colors[0][0][t],s[0][1][t]=this.colors[0][1][t],s[1][0][t]=(this.colors[0][0][t]+this.colors[1][0][t])/2,s[1][1][t]=(this.colors[0][1][t]+this.colors[1][1][t])/2,r[0][0][t]=s[1][0][t],r[0][1][t]=s[1][1][t],r[1][0][t]=this.colors[1][0][t],r[1][1][t]=this.colors[1][1][t];return[new m(t,s),new m(e,r)]}paint(t,e){let s,n=!1;for(let t=0;t&lt;4;++t)if((s=o([this.nodes[0][t],this.nodes[1][t],this.nodes[2][t],this.nodes[3][t]]))&gt;r){n=!0;break}if(n){let s=this.split();s[0].paint(t,e),s[1].paint(t,e)}else{new w([...this.nodes[0]],[...this.colors[0]]).paintCurve(t,e)}}}class b{constructor(t){this.readMesh(t),this.type=t.getAttribute(&quot;type&quot;)||&quot;bilinear&quot;}readMesh(t){let e=[[]],s=[[]],r=Number(t.getAttribute(&quot;x&quot;)),n=Number(t.getAttribute(&quot;y&quot;));e[0][0]=new x(r,n);let o=t.children;for(let t=0,r=o.length;t&lt;r;++t){e[3*t+1]=[],e[3*t+2]=[],e[3*t+3]=[],s[t+1]=[];let r=o[t].children;for(let n=0,o=r.length;n&lt;o;++n){let o=r[n].children;for(let r=0,i=o.length;r&lt;i;++r){let i=r;0!==t&amp;&amp;++i;let h,d=o[r].getAttribute(&quot;path&quot;),c=&quot;l&quot;;null!=d&amp;&amp;(c=(h=d.match(/\s*([lLcC])\s*(.*)/))[1]);let u=l(h[2]);switch(c){case&quot;l&quot;:0===i?(e[3*t][3*n+3]=u[0].add(e[3*t][3*n]),e[3*t][3*n+1]=a(e[3*t][3*n],e[3*t][3*n+3]),e[3*t][3*n+2]=a(e[3*t][3*n+3],e[3*t][3*n])):1===i?(e[3*t+3][3*n+3]=u[0].add(e[3*t][3*n+3]),e[3*t+1][3*n+3]=a(e[3*t][3*n+3],e[3*t+3][3*n+3]),e[3*t+2][3*n+3]=a(e[3*t+3][3*n+3],e[3*t][3*n+3])):2===i?(0===n&amp;&amp;(e[3*t+3][3*n+0]=u[0].add(e[3*t+3][3*n+3])),e[3*t+3][3*n+1]=a(e[3*t+3][3*n],e[3*t+3][3*n+3]),e[3*t+3][3*n+2]=a(e[3*t+3][3*n+3],e[3*t+3][3*n])):(e[3*t+1][3*n]=a(e[3*t][3*n],e[3*t+3][3*n]),e[3*t+2][3*n]=a(e[3*t+3][3*n],e[3*t][3*n]));break;case&quot;L&quot;:0===i?(e[3*t][3*n+3]=u[0],e[3*t][3*n+1]=a(e[3*t][3*n],e[3*t][3*n+3]),e[3*t][3*n+2]=a(e[3*t][3*n+3],e[3*t][3*n])):1===i?(e[3*t+3][3*n+3]=u[0],e[3*t+1][3*n+3]=a(e[3*t][3*n+3],e[3*t+3][3*n+3]),e[3*t+2][3*n+3]=a(e[3*t+3][3*n+3],e[3*t][3*n+3])):2===i?(0===n&amp;&amp;(e[3*t+3][3*n+0]=u[0]),e[3*t+3][3*n+1]=a(e[3*t+3][3*n],e[3*t+3][3*n+3]),e[3*t+3][3*n+2]=a(e[3*t+3][3*n+3],e[3*t+3][3*n])):(e[3*t+1][3*n]=a(e[3*t][3*n],e[3*t+3][3*n]),e[3*t+2][3*n]=a(e[3*t+3][3*n],e[3*t][3*n]));break;case&quot;c&quot;:0===i?(e[3*t][3*n+1]=u[0].add(e[3*t][3*n]),e[3*t][3*n+2]=u[1].add(e[3*t][3*n]),e[3*t][3*n+3]=u[2].add(e[3*t][3*n])):1===i?(e[3*t+1][3*n+3]=u[0].add(e[3*t][3*n+3]),e[3*t+2][3*n+3]=u[1].add(e[3*t][3*n+3]),e[3*t+3][3*n+3]=u[2].add(e[3*t][3*n+3])):2===i?(e[3*t+3][3*n+2]=u[0].add(e[3*t+3][3*n+3]),e[3*t+3][3*n+1]=u[1].add(e[3*t+3][3*n+3]),0===n&amp;&amp;(e[3*t+3][3*n+0]=u[2].add(e[3*t+3][3*n+3]))):(e[3*t+2][3*n]=u[0].add(e[3*t+3][3*n]),e[3*t+1][3*n]=u[1].add(e[3*t+3][3*n]));break;case&quot;C&quot;:0===i?(e[3*t][3*n+1]=u[0],e[3*t][3*n+2]=u[1],e[3*t][3*n+3]=u[2]):1===i?(e[3*t+1][3*n+3]=u[0],e[3*t+2][3*n+3]=u[1],e[3*t+3][3*n+3]=u[2]):2===i?(e[3*t+3][3*n+2]=u[0],e[3*t+3][3*n+1]=u[1],0===n&amp;&amp;(e[3*t+3][3*n+0]=u[2])):(e[3*t+2][3*n]=u[0],e[3*t+1][3*n]=u[1]);break;default:console.error(&quot;mesh.js: &quot;+c+&quot; invalid path type.&quot;)}if(0===t&amp;&amp;0===n||r&gt;0){let e=window.getComputedStyle(o[r]).stopColor.match(/^rgb\s*\(\s*(\d+)\s*,\s*(\d+)\s*,\s*(\d+)\s*\)$/i),a=window.getComputedStyle(o[r]).stopOpacity,h=255;a&amp;&amp;(h=Math.floor(255*a)),e&amp;&amp;(0===i?(s[t][n]=[],s[t][n][0]=Math.floor(e[1]),s[t][n][1]=Math.floor(e[2]),s[t][n][2]=Math.floor(e[3]),s[t][n][3]=h):1===i?(s[t][n+1]=[],s[t][n+1][0]=Math.floor(e[1]),s[t][n+1][1]=Math.floor(e[2]),s[t][n+1][2]=Math.floor(e[3]),s[t][n+1][3]=h):2===i?(s[t+1][n+1]=[],s[t+1][n+1][0]=Math.floor(e[1]),s[t+1][n+1][1]=Math.floor(e[2]),s[t+1][n+1][2]=Math.floor(e[3]),s[t+1][n+1][3]=h):3===i&amp;&amp;(s[t+1][n]=[],s[t+1][n][0]=Math.floor(e[1]),s[t+1][n][1]=Math.floor(e[2]),s[t+1][n][2]=Math.floor(e[3]),s[t+1][n][3]=h))}}e[3*t+1][3*n+1]=new x,e[3*t+1][3*n+2]=new x,e[3*t+2][3*n+1]=new x,e[3*t+2][3*n+2]=new x,e[3*t+1][3*n+1].x=(-4*e[3*t][3*n].x+6*(e[3*t][3*n+1].x+e[3*t+1][3*n].x)+-2*(e[3*t][3*n+3].x+e[3*t+3][3*n].x)+3*(e[3*t+3][3*n+1].x+e[3*t+1][3*n+3].x)+-1*e[3*t+3][3*n+3].x)/9,e[3*t+1][3*n+2].x=(-4*e[3*t][3*n+3].x+6*(e[3*t][3*n+2].x+e[3*t+1][3*n+3].x)+-2*(e[3*t][3*n].x+e[3*t+3][3*n+3].x)+3*(e[3*t+3][3*n+2].x+e[3*t+1][3*n].x)+-1*e[3*t+3][3*n].x)/9,e[3*t+2][3*n+1].x=(-4*e[3*t+3][3*n].x+6*(e[3*t+3][3*n+1].x+e[3*t+2][3*n].x)+-2*(e[3*t+3][3*n+3].x+e[3*t][3*n].x)+3*(e[3*t][3*n+1].x+e[3*t+2][3*n+3].x)+-1*e[3*t][3*n+3].x)/9,e[3*t+2][3*n+2].x=(-4*e[3*t+3][3*n+3].x+6*(e[3*t+3][3*n+2].x+e[3*t+2][3*n+3].x)+-2*(e[3*t+3][3*n].x+e[3*t][3*n+3].x)+3*(e[3*t][3*n+2].x+e[3*t+2][3*n].x)+-1*e[3*t][3*n].x)/9,e[3*t+1][3*n+1].y=(-4*e[3*t][3*n].y+6*(e[3*t][3*n+1].y+e[3*t+1][3*n].y)+-2*(e[3*t][3*n+3].y+e[3*t+3][3*n].y)+3*(e[3*t+3][3*n+1].y+e[3*t+1][3*n+3].y)+-1*e[3*t+3][3*n+3].y)/9,e[3*t+1][3*n+2].y=(-4*e[3*t][3*n+3].y+6*(e[3*t][3*n+2].y+e[3*t+1][3*n+3].y)+-2*(e[3*t][3*n].y+e[3*t+3][3*n+3].y)+3*(e[3*t+3][3*n+2].y+e[3*t+1][3*n].y)+-1*e[3*t+3][3*n].y)/9,e[3*t+2][3*n+1].y=(-4*e[3*t+3][3*n].y+6*(e[3*t+3][3*n+1].y+e[3*t+2][3*n].y)+-2*(e[3*t+3][3*n+3].y+e[3*t][3*n].y)+3*(e[3*t][3*n+1].y+e[3*t+2][3*n+3].y)+-1*e[3*t][3*n+3].y)/9,e[3*t+2][3*n+2].y=(-4*e[3*t+3][3*n+3].y+6*(e[3*t+3][3*n+2].y+e[3*t+2][3*n+3].y)+-2*(e[3*t+3][3*n].y+e[3*t][3*n+3].y)+3*(e[3*t][3*n+2].y+e[3*t+2][3*n].y)+-1*e[3*t][3*n].y)/9}}this.nodes=e,this.colors=s}paintMesh(t,e){let s=(this.nodes.length-1)/3,r=(this.nodes[0].length-1)/3;if(&quot;bilinear&quot;===this.type||s&lt;2||r&lt;2){let n;for(let o=0;o&lt;s;++o)for(let s=0;s&lt;r;++s){let r=[];for(let t=3*o,e=3*o+4;t&lt;e;++t)r.push(this.nodes[t].slice(3*s,3*s+4));let i=[];i.push(this.colors[o].slice(s,s+2)),i.push(this.colors[o+1].slice(s,s+2)),(n=new m(r,i)).paint(t,e)}}else{let n,o,a,h,l,d,u;const x=s,g=r;s++,r++;let w=new Array(s);for(let t=0;t&lt;s;++t){w[t]=new Array(r);for(let e=0;e&lt;r;++e)w[t][e]=[],w[t][e][0]=this.nodes[3*t][3*e],w[t][e][1]=this.colors[t][e]}for(let t=0;t&lt;s;++t)for(let e=0;e&lt;r;++e)0!==t&amp;&amp;t!==x&amp;&amp;(n=i(w[t-1][e][0],w[t][e][0]),o=i(w[t+1][e][0],w[t][e][0]),w[t][e][2]=c(w[t-1][e][1],w[t][e][1],w[t+1][e][1],n,o)),0!==e&amp;&amp;e!==g&amp;&amp;(n=i(w[t][e-1][0],w[t][e][0]),o=i(w[t][e+1][0],w[t][e][0]),w[t][e][3]=c(w[t][e-1][1],w[t][e][1],w[t][e+1][1],n,o));for(let t=0;t&lt;r;++t){w[0][t][2]=[],w[x][t][2]=[];for(let e=0;e&lt;4;++e)n=i(w[1][t][0],w[0][t][0]),o=i(w[x][t][0],w[x-1][t][0]),w[0][t][2][e]=n&gt;0?2*(w[1][t][1][e]-w[0][t][1][e])/n-w[1][t][2][e]:0,w[x][t][2][e]=o&gt;0?2*(w[x][t][1][e]-w[x-1][t][1][e])/o-w[x-1][t][2][e]:0}for(let t=0;t&lt;s;++t){w[t][0][3]=[],w[t][g][3]=[];for(let e=0;e&lt;4;++e)n=i(w[t][1][0],w[t][0][0]),o=i(w[t][g][0],w[t][g-1][0]),w[t][0][3][e]=n&gt;0?2*(w[t][1][1][e]-w[t][0][1][e])/n-w[t][1][3][e]:0,w[t][g][3][e]=o&gt;0?2*(w[t][g][1][e]-w[t][g-1][1][e])/o-w[t][g-1][3][e]:0}for(let s=0;s&lt;x;++s)for(let r=0;r&lt;g;++r){let n=i(w[s][r][0],w[s+1][r][0]),o=i(w[s][r+1][0],w[s+1][r+1][0]),c=i(w[s][r][0],w[s][r+1][0]),x=i(w[s+1][r][0],w[s+1][r+1][0]),g=[[],[],[],[]];for(let t=0;t&lt;4;++t){(d=[])[0]=w[s][r][1][t],d[1]=w[s+1][r][1][t],d[2]=w[s][r+1][1][t],d[3]=w[s+1][r+1][1][t],d[4]=w[s][r][2][t]*n,d[5]=w[s+1][r][2][t]*n,d[6]=w[s][r+1][2][t]*o,d[7]=w[s+1][r+1][2][t]*o,d[8]=w[s][r][3][t]*c,d[9]=w[s+1][r][3][t]*x,d[10]=w[s][r+1][3][t]*c,d[11]=w[s+1][r+1][3][t]*x,d[12]=0,d[13]=0,d[14]=0,d[15]=0,u=f(d);for(let e=0;e&lt;9;++e){g[t][e]=[];for(let s=0;s&lt;9;++s)g[t][e][s]=p(u,e/8,s/8),g[t][e][s]&gt;255?g[t][e][s]=255:g[t][e][s]&lt;0&amp;&amp;(g[t][e][s]=0)}}h=[];for(let t=3*s,e=3*s+4;t&lt;e;++t)h.push(this.nodes[t].slice(3*r,3*r+4));l=y(h);for(let s=0;s&lt;8;++s)for(let r=0;r&lt;8;++r)(a=new m(l[s][r],[[[g[0][s][r],g[1][s][r],g[2][s][r],g[3][s][r]],[g[0][s][r+1],g[1][s][r+1],g[2][s][r+1],g[3][s][r+1]]],[[g[0][s+1][r],g[1][s+1][r],g[2][s+1][r],g[3][s+1][r]],[g[0][s+1][r+1],g[1][s+1][r+1],g[2][s+1][r+1],g[3][s+1][r+1]]]])).paint(t,e)}}}transform(t){if(t instanceof x)for(let e=0,s=this.nodes.length;e&lt;s;++e)for(let s=0,r=this.nodes[0].length;s&lt;r;++s)this.nodes[e][s]=this.nodes[e][s].add(t);else if(t instanceof g)for(let e=0,s=this.nodes.length;e&lt;s;++e)for(let s=0,r=this.nodes[0].length;s&lt;r;++s)this.nodes[e][s]=this.nodes[e][s].transform(t)}scale(t){for(let e=0,s=this.nodes.length;e&lt;s;++e)for(let s=0,r=this.nodes[0].length;s&lt;r;++s)this.nodes[e][s]=this.nodes[e][s].scale(t)}}document.querySelectorAll(&quot;rect,circle,ellipse,path,text&quot;).forEach((r,n)=&gt;{let o=r.getAttribute(&quot;id&quot;);o||(o=&quot;patchjs_shape&quot;+n,r.setAttribute(&quot;id&quot;,o));const i=r.style.fill.match(/^url\(\s*&quot;?\s*#([^\s&quot;]+)&quot;?\s*\)/),a=r.style.stroke.match(/^url\(\s*&quot;?\s*#([^\s&quot;]+)&quot;?\s*\)/);if(i&amp;&amp;i[1]){const a=document.getElementById(i[1]);if(a&amp;&amp;&quot;meshgradient&quot;===a.nodeName){const i=r.getBBox();let l=document.createElementNS(s,&quot;canvas&quot;);d(l,{width:i.width,height:i.height});const c=l.getContext(&quot;2d&quot;);let u=c.createImageData(i.width,i.height);const f=new b(a);&quot;objectBoundingBox&quot;===a.getAttribute(&quot;gradientUnits&quot;)&amp;&amp;f.scale(new x(i.width,i.height));const p=a.getAttribute(&quot;gradientTransform&quot;);null!=p&amp;&amp;f.transform(h(p)),&quot;userSpaceOnUse&quot;===a.getAttribute(&quot;gradientUnits&quot;)&amp;&amp;f.transform(new x(-i.x,-i.y)),f.paintMesh(u.data,l.width),c.putImageData(u,0,0);const y=document.createElementNS(t,&quot;image&quot;);d(y,{width:i.width,height:i.height,x:i.x,y:i.y});let g=l.toDataURL();y.setAttributeNS(e,&quot;xlink:href&quot;,g),r.parentNode.insertBefore(y,r),r.style.fill=&quot;none&quot;;const w=document.createElementNS(t,&quot;use&quot;);w.setAttributeNS(e,&quot;xlink:href&quot;,&quot;#&quot;+o);const m=&quot;patchjs_clip&quot;+n,M=document.createElementNS(t,&quot;clipPath&quot;);M.setAttribute(&quot;id&quot;,m),M.appendChild(w),r.parentElement.insertBefore(M,r),y.setAttribute(&quot;clip-path&quot;,&quot;url(#&quot;+m+&quot;)&quot;),u=null,l=null,g=null}}if(a&amp;&amp;a[1]){const o=document.getElementById(a[1]);if(o&amp;&amp;&quot;meshgradient&quot;===o.nodeName){const i=parseFloat(r.style.strokeWidth.slice(0,-2))*(parseFloat(r.style.strokeMiterlimit)||parseFloat(r.getAttribute(&quot;stroke-miterlimit&quot;))||1),a=r.getBBox(),l=Math.trunc(a.width+i),c=Math.trunc(a.height+i),u=Math.trunc(a.x-i/2),f=Math.trunc(a.y-i/2);let p=document.createElementNS(s,&quot;canvas&quot;);d(p,{width:l,height:c});const y=p.getContext(&quot;2d&quot;);let g=y.createImageData(l,c);const w=new b(o);&quot;objectBoundingBox&quot;===o.getAttribute(&quot;gradientUnits&quot;)&amp;&amp;w.scale(new x(l,c));const m=o.getAttribute(&quot;gradientTransform&quot;);null!=m&amp;&amp;w.transform(h(m)),&quot;userSpaceOnUse&quot;===o.getAttribute(&quot;gradientUnits&quot;)&amp;&amp;w.transform(new x(-u,-f)),w.paintMesh(g.data,p.width),y.putImageData(g,0,0);const M=document.createElementNS(t,&quot;image&quot;);d(M,{width:l,height:c,x:0,y:0});let S=p.toDataURL();M.setAttributeNS(e,&quot;xlink:href&quot;,S);const k=&quot;pattern_clip&quot;+n,A=document.createElementNS(t,&quot;pattern&quot;);d(A,{id:k,patternUnits:&quot;userSpaceOnUse&quot;,width:l,height:c,x:u,y:f}),A.appendChild(M),o.parentNode.appendChild(A),r.style.stroke=&quot;url(#&quot;+k+&quot;)&quot;,g=null,p=null,S=null}}})}();
</script></svg>
